<svg width="129" height="32" viewBox="0 0 129 32" fill="none" xmlns="http://www.w3.org/2000/svg">
<path d="M108.745 0.325633C107.138 0.994164 105.884 2.39248 105.435 4.16666L104.68 7.14833L99.662 7.14827C98.5813 7.14827 97.6405 7.44015 96.8192 7.98316C96.0195 8.52617 95.4576 9.12347 95.1334 9.77508H94.9713V7.33155H91.7293L91.6989 23.9475H95.103L95.1334 14.9879C95.1334 13.6196 95.5548 12.5227 96.3977 11.6973C97.2623 10.8502 98.3436 10.4063 99.662 10.4063L103.855 10.4066L99.6429 27.0465C99.5545 27.3957 99.3947 27.7117 99.1815 27.9801C98.2759 29.1205 96.5734 28.7744 95.1429 28.4836L95.0864 28.4721V31.6639C96.5282 31.9568 98.0515 32.2399 99.4106 31.6744C101.017 31.0059 102.272 29.6076 102.721 27.8334L107.132 10.4066H109.724V18.9032C109.724 22.7151 112.379 24.4546 115.427 24.4546C118.28 24.4546 119.998 23.1839 120.873 21.9133H120.938V23.9984H124.115V7.38247H120.938V17.5801C120.938 20.0888 119.187 21.7504 116.464 21.7504C114.065 21.7504 113.017 20.2716 113.017 18.0235V7.14833H107.957L108.513 4.95356C108.601 4.60429 108.761 4.28836 108.974 4.01991C109.88 2.87963 111.639 3.23709 113.069 3.52774V0.33589C111.627 0.043137 110.104 -0.239841 108.745 0.325633Z" fill="white"/>
<path fill-rule="evenodd" clip-rule="evenodd" d="M69.7696 9.40288V0.703928H72.9467V23.9989H69.7696V22.044H69.7047C68.797 23.2169 67.2084 24.455 64.6148 24.455C60.4002 24.455 57.1907 21.1644 57.1907 15.6909C57.1907 10.2174 60.4002 6.89419 64.6148 6.89419C67.2084 6.89419 68.797 8.09966 69.7047 9.40288H69.7696ZM65.1335 21.816C67.9865 21.816 69.7372 19.4376 69.7372 15.6909C69.7372 11.9116 67.9865 9.56578 65.1335 9.56578C62.0212 9.56578 60.4975 12.4328 60.4975 15.6909C60.4975 18.9489 62.0212 21.816 65.1335 21.816Z" fill="white"/>
<path d="M125.823 23.9989H129V0.703928H125.823V23.9989Z" fill="white"/>
<path fill-rule="evenodd" clip-rule="evenodd" d="M90.4918 15.3321C90.4918 10.1844 87.6713 6.8612 82.6462 6.8612C77.5887 6.8612 74.4764 10.445 74.4764 15.6579C74.4764 20.7404 77.3942 24.4872 82.6462 24.4872C86.9905 24.4872 89.422 22.0762 90.2973 18.8833H87.0553C86.7635 19.9911 85.6288 21.8807 82.711 21.8807C79.4366 21.8807 77.8157 19.3069 77.7508 16.5376H90.4594C90.4918 16.277 90.4918 15.7881 90.4918 15.3321ZM87.185 14.0289H77.7508C77.9453 11.2921 79.8905 9.46762 82.549 9.46762C85.3695 9.46762 87.185 11.4224 87.185 14.0289Z" fill="white"/>
<path d="M55.8033 12.4645C55.8033 8.65257 53.3394 6.89323 50.2919 6.89323C47.4389 6.89323 45.7207 8.19644 44.8454 9.46707H44.7805V7.38193H41.6034V23.9979H44.7805V13.8003C44.7805 11.2916 46.5312 9.62998 49.2545 9.62998C51.6535 9.62998 52.6261 11.1287 52.6261 13.3441V23.9979H55.8033V12.4645Z" fill="white"/>
<path fill-rule="evenodd" clip-rule="evenodd" d="M31.8361 24.4872C26.6813 24.4872 23.569 20.9033 23.569 15.6905C23.569 10.5102 26.6813 6.8612 31.8685 6.8612C36.9908 6.8612 40.1031 10.4776 40.1031 15.6579C40.1031 20.8707 36.9908 24.4872 31.8361 24.4872ZM31.8685 21.8482C35.2401 21.8482 36.7963 19.144 36.7963 15.6905C36.7963 12.2044 35.2401 9.53278 31.8685 9.53278C28.432 9.53278 26.8758 12.2044 26.8758 15.6905C26.8758 19.144 28.432 21.8482 31.8685 21.8482Z" fill="white"/>
<path d="M4.98442 23.9476L0 7.14833H3.40749L6.72676 19.4853H6.89217L10.2225 7.14833H13.63L16.9382 19.4306H17.1036L20.4008 7.14833H23.8083L18.8349 23.9476H15.4715L12.031 11.8184H11.7773L8.33677 23.9476H4.98442Z" fill="white"/>
</svg>
