<svg width="1600" height="400" viewBox="0 0 1600 400" fill="none" xmlns="http://www.w3.org/2000/svg">
<g opacity="0.9">
<path d="M1348.78 4.07041C1328.85 12.427 1313.29 29.906 1307.72 52.0833L1298.35 89.3542L1236.12 89.3534C1222.71 89.3534 1211.05 93.0019 1200.86 99.7895C1190.94 106.577 1183.97 114.043 1179.95 122.188H1177.94V91.6444H1137.73L1137.35 299.344H1179.57L1179.95 187.349C1179.95 170.244 1185.18 156.534 1195.63 146.216C1206.35 135.628 1219.77 130.079 1236.12 130.079L1288.12 130.082L1235.88 338.081C1234.78 342.447 1232.8 346.396 1230.16 349.751C1218.93 364.006 1197.81 359.68 1180.07 356.044L1179.37 355.901V395.799C1197.25 399.46 1216.14 402.999 1233 395.93C1252.93 387.573 1268.49 370.094 1274.06 347.917L1328.77 130.082H1360.92V236.29C1360.92 283.939 1393.85 305.682 1431.65 305.682C1467.03 305.682 1488.34 289.799 1499.2 273.916H1500.01V299.98H1539.41V92.2809H1500.01V219.751C1500.01 251.11 1478.29 271.88 1444.52 271.88C1414.76 271.88 1401.76 253.395 1401.76 225.294V89.3542H1339L1345.89 61.9196C1346.99 57.5536 1348.97 53.6045 1351.62 50.2489C1362.85 35.9954 1384.67 40.4636 1402.41 44.0968V4.19862C1384.53 0.539212 1365.63 -2.99801 1348.78 4.07041Z" fill="#141414"/>
<path fill-rule="evenodd" clip-rule="evenodd" d="M865.359 117.536V8.79909H904.766V299.986H865.359V275.551H864.555C853.296 290.212 833.593 305.687 801.424 305.687C749.15 305.687 709.342 264.555 709.342 196.136C709.342 127.717 749.15 86.1774 801.424 86.1774C833.593 86.1774 853.296 101.246 864.555 117.536H865.359ZM807.858 272.7C843.243 272.7 864.957 242.97 864.957 196.136C864.957 148.895 843.243 119.572 807.858 119.572C769.256 119.572 750.357 155.411 750.357 196.136C750.357 236.861 769.256 272.7 807.858 272.7Z" fill="#141414"/>
<path d="M1560.59 299.986H1600V8.79909H1560.59V299.986Z" fill="#141414"/>
<path fill-rule="evenodd" clip-rule="evenodd" d="M1122.38 191.651C1122.38 127.305 1087.4 85.765 1025.07 85.765C962.341 85.765 923.739 130.563 923.739 195.724C923.739 259.255 959.928 306.089 1025.07 306.089C1078.95 306.089 1109.11 275.953 1119.97 236.042H1079.76C1076.14 249.888 1062.06 273.509 1025.87 273.509C985.261 273.509 965.155 241.336 964.351 206.719H1121.98C1122.38 203.462 1122.38 197.352 1122.38 191.651ZM1081.36 175.361H964.351C966.764 141.152 990.89 118.345 1023.86 118.345C1058.85 118.345 1081.36 142.781 1081.36 175.361Z" fill="#141414"/>
<path d="M692.133 155.806C692.133 108.157 661.573 86.1653 623.775 86.1653C588.39 86.1653 567.078 102.456 556.221 118.338H555.417V92.2742H516.011V299.974H555.417V172.503C555.417 141.145 577.131 120.375 610.908 120.375C640.664 120.375 652.727 139.108 652.727 166.802V299.974H692.133V155.806Z" fill="#141414"/>
<path fill-rule="evenodd" clip-rule="evenodd" d="M394.866 306.089C330.931 306.089 292.329 261.292 292.329 196.131C292.329 131.377 330.931 85.765 395.268 85.765C458.801 85.765 497.403 130.97 497.403 195.724C497.403 260.884 458.801 306.089 394.866 306.089ZM395.268 273.102C437.087 273.102 456.388 239.3 456.388 196.131C456.388 152.555 437.087 119.16 395.268 119.16C352.645 119.16 333.343 152.555 333.343 196.131C333.343 239.3 352.645 273.102 395.268 273.102Z" fill="#141414"/>
<path d="M61.8222 299.345L0 89.3542H42.2634L83.4327 243.566H85.4843L126.79 89.3542H169.054L210.086 242.882H212.138L253.034 89.3542H295.297L233.612 299.345H191.895L149.221 147.73H146.076L103.402 299.345H61.8222Z" fill="#141414"/>
</g>
</svg>
